<svg class="logo" xmlns="http://www.w3.org/2000/svg" viewBox="0 0 171.5 198"><path class="logo__hexagon" d="M170.9 49.8V148l-85 49.1L.9 148V49.8L85.9.7l85 49.1z"/><path class="logo__text show-for-medium" d="M58.8 90.1h-7.6V71.5H41.1v3.7h5.8v14.9h-7.5v3.7h19.4v-3.7zm-12-27h4.5v4.8h-4.5v-4.8zm34.9 30.7V78.7c0-2.3-.1-4.1-1-5.6-1.2-2.1-3.5-3.2-6.6-3.2-2.7 0-4.9 1.1-6.4 3.4v-2.6h-4.1v23.1H68V80.5c0-4.2 2.1-6.7 5.7-6.7 2.8 0 3.8 1.5 3.8 5.6v14.3l4.2.1zm11.4-13.3c0-4.2 2.1-6.7 5.7-6.7 2.8 0 3.8 1.5 3.8 5.6v14.3h4.3v-15c0-2.3-.1-4.1-1-5.6-1.2-2.1-3.5-3.2-6.6-3.2-2.7 0-4.9 1.1-6.4 3.4v-2.6h-4.1v23.1h4.3V80.5zm29.8 14.1c6.3 0 10.1-4.6 10.1-12.3s-3.8-12.4-10.1-12.4-10.1 4.6-10.1 12.4c.1 7.7 3.8 12.3 10.1 12.3zm0-20.8c3.7 0 5.7 3 5.7 8.4 0 5.5-2 8.5-5.7 8.5s-5.7-3-5.7-8.5c.1-5.4 2.1-8.4 5.7-8.4zM39.5 123l-6.2-17.5h-4.5l8.5 23.1h4.4l8.4-23.1h-4.5L39.5 123zm22.6-18.3c-5.8 0-9.6 4.8-9.6 12.3 0 7.6 3.6 12.4 9.5 12.4 4.8 0 8.5-2.9 9.3-7.5l.1-.4h-4.3l-.1.2c-.6 2.3-2.3 3.7-4.6 3.7-3.3 0-5.4-2.7-5.5-7h14.7v-2c.2-7.3-3.4-11.7-9.5-11.7zm5.2 10H57c.3-4 2.1-6.1 5.2-6.1 3.2 0 5 2.2 5.1 6.1zm20.7-10c-2.7 0-4.9 1.1-6.4 3.4v-2.6h-4.1v23.1h4.3v-13.3c0-4.2 2.1-6.7 5.7-6.7 2.8 0 3.8 1.5 3.8 5.6v14.3h4.3v-15.1c0-2.3-.1-4.1-1-5.6-1.2-2-3.5-3.1-6.6-3.1zm21.4-5h-4.3v6.6h-6.4v3.8h6.4V121c0 5.6 1.2 8.4 8 8.4 1.2 0 2.8-.1 4.4-.2h.3v-3.8h-.4c-1.3.2-2.4.2-3.1.2-4.5 0-4.9-1.4-4.9-5.3V110h8.4v-3.8h-8.4v-6.5zm20.9-1.7h4.5v4.8h-4.5V98zm4.4 26.9v-18.6h-10.1v3.7h5.8v14.9h-7.6v3.7h19.5v-3.7h-7.6z"/><path class="logo__text hide-for-medium" d="M75.8 116.5H61.7V78.7H42.9v7.7h10.7v30.1h-14v7.6h36.2zM53.5 61.8h8.4v9.8h-8.4zm65.1 62.3V93.5c0-4.7-.1-8.3-1.8-11.4-2.3-4.3-6.5-6.5-12.3-6.5-5.1 0-9.1 2.3-11.9 6.9v-5.3h-7.7v46.9h8v-27c0-8.6 3.8-13.6 10.6-13.6 5.2 0 7.1 3 7.1 11.4V124h8zm10.4-10h8.4v9.8H129z"/></svg>